<svg
  width="16"
  height="10"
  viewBox="0 0 16 10"
  fill="none"
  xmlns="http://www.w3.org/2000/svg"
>
  <path
    d="M15.778 0.555538V4.99985C15.778 5.14718 15.7195 5.28849 15.6153 5.39267C15.5111 5.49685 15.3698 5.55538 15.2225 5.55538C15.0752 5.55538 14.9339 5.49685 14.8297 5.39267C14.7255 5.28849 14.667 5.14718 14.667 4.99985V1.89647L8.94908 7.61504C8.89749 7.66669 8.83622 7.70767 8.76878 7.73563C8.70134 7.76358 8.62905 7.77797 8.55604 7.77797C8.48303 7.77797 8.41074 7.76358 8.3433 7.73563C8.27586 7.70767 8.21459 7.66669 8.163 7.61504L5.77835 5.2297L1.17155 9.8372C1.06731 9.94144 0.925923 10 0.778504 10C0.631084 10 0.489702 9.94144 0.38546 9.8372C0.281219 9.73295 0.222656 9.59157 0.222656 9.44415C0.222656 9.29673 0.281219 9.15535 0.38546 9.05111L5.3853 4.05126C5.4369 3.99961 5.49817 3.95864 5.56561 3.93068C5.63305 3.90272 5.70534 3.88833 5.77835 3.88833C5.85136 3.88833 5.92365 3.90272 5.99109 3.93068C6.05853 3.95864 6.1198 3.99961 6.17139 4.05126L8.55604 6.43661L13.8816 1.11108H10.7782C10.6309 1.11108 10.4896 1.05255 10.3854 0.948363C10.2812 0.84418 10.2227 0.702876 10.2227 0.555538C10.2227 0.4082 10.2812 0.266897 10.3854 0.162714C10.4896 0.0585299 10.6309 0 10.7782 0H15.2225C15.3698 0 15.5111 0.0585299 15.6153 0.162714C15.7195 0.266897 15.778 0.4082 15.778 0.555538Z"
    fill="#6BBD6E"
  />
</svg>
